<?xml version="1.0"?>
<svg xmlns="http://www.w3.org/2000/svg" id="Layer_1" data-name="Layer 1" viewBox="0 0 64 64"><title>Icons8 RSL Colored Part 6</title><polygon points="37 57 29 60 28 37 38 37 37 57" style="fill:#f9e3ae;"/><rect x="3" y="5" width="58" height="10" style="fill:#f9e3ae;"/><path d="M3,5H61a0,0,0,0,1,0,0V7a3,3,0,0,1-3,3H6A3,3,0,0,1,3,7V5A0,0,0,0,1,3,5Z" style="fill:#faefde;"/><polygon points="38 37 28 37 5 15 59 15 38 37" style="fill:#f9e3ae;"/><polygon points="42 15 34 37 34 58 28.96 59.12 29 60 37 57 38 37 59 15 42 15" style="fill:#f6d397;"/><circle cx="47" cy="51" r="12" style="fill:#ed7899;"/><path d="M59,4H5A3,3,0,0,0,2,7v6a3,3,0,0,0,2.57,3L26.15,36.61a3,3,0,0,1,.92,2L28,59.5a2,2,0,0,0,1,1.64,2,2,0,0,0,1,.27,2,2,0,0,0,.9-.21l5.46-2.76A13,13,0,1,0,38.8,40.91l.12-2.37a3,3,0,0,1,.83-1.93L59.46,16A3,3,0,0,0,62,13V7A3,3,0,0,0,59,4ZM30,59.41l-.92-20.85A5.38,5.38,0,0,0,29,38h8a3.32,3.32,0,0,0-.06.44l-.23,4.64a13,13,0,0,0-1.37,13.64ZM47,40a11,11,0,1,1-9.13,17.13A11.06,11.06,0,0,1,36,51,11,11,0,0,1,47,40ZM60,13a1,1,0,0,1-1,1,1,1,0,0,0-.72.31l-20,20.92a5.43,5.43,0,0,0-.59.77H28.22a4.54,4.54,0,0,0-.69-.83L7.49,16H47a1,1,0,0,0,0-2H5a1,1,0,0,1-1-1V7A1,1,0,0,1,5,6H59a1,1,0,0,1,1,1Z" style="fill:#8d6c9f;"/><path d="M12,8a1,1,0,0,0-1,1v2a1,1,0,0,0,2,0V9A1,1,0,0,0,12,8Z" style="fill:#8d6c9f;"/><path d="M7,8A1,1,0,0,0,6,9v2a1,1,0,0,0,2,0V9A1,1,0,0,0,7,8Z" style="fill:#8d6c9f;"/><path d="M17,8a1,1,0,0,0-1,1v2a1,1,0,0,0,2,0V9A1,1,0,0,0,17,8Z" style="fill:#8d6c9f;"/><path d="M22,8a1,1,0,0,0-1,1v2a1,1,0,0,0,2,0V9A1,1,0,0,0,22,8Z" style="fill:#8d6c9f;"/><path d="M27,8a1,1,0,0,0-1,1v2a1,1,0,0,0,2,0V9A1,1,0,0,0,27,8Z" style="fill:#8d6c9f;"/><path d="M32,8a1,1,0,0,0-1,1v2a1,1,0,0,0,2,0V9A1,1,0,0,0,32,8Z" style="fill:#8d6c9f;"/><path d="M37,8a1,1,0,0,0-1,1v2a1,1,0,0,0,2,0V9A1,1,0,0,0,37,8Z" style="fill:#8d6c9f;"/><path d="M42,8a1,1,0,0,0-1,1v2a1,1,0,0,0,2,0V9A1,1,0,0,0,42,8Z" style="fill:#8d6c9f;"/><path d="M47,8a1,1,0,0,0-1,1v2a1,1,0,0,0,2,0V9A1,1,0,0,0,47,8Z" style="fill:#8d6c9f;"/><path d="M52,12a1,1,0,0,0,1-1V9a1,1,0,0,0-2,0v2A1,1,0,0,0,52,12Z" style="fill:#8d6c9f;"/><path d="M57,8a1,1,0,0,0-1,1v2a1,1,0,0,0,2,0V9A1,1,0,0,0,57,8Z" style="fill:#8d6c9f;"/><path d="M55,14H51a1,1,0,0,0,0,2h4a1,1,0,0,0,0-2Z" style="fill:#8d6c9f;"/><path d="M48.41,51l3.54-3.54a1,1,0,0,0-1.41-1.41L47,49.59l-3.54-3.54a1,1,0,0,0-1.41,1.41L45.59,51l-3.54,3.54a1,1,0,1,0,1.41,1.41L47,52.41l3.54,3.54a1,1,0,0,0,1.41-1.41Z" style="fill:#faefde;"/></svg>
